:FULLY-SPECIFIED
:FORCE-ALL-JOINTS-BE-3DOF
:DEGREES
510
root 5.95015 15.9341 -5.24089 -173.702 78.5375 -179.297
lfemur -28.1705 -12.8783 -22.4205
ltibia 58.1565 -0 0
lfoot -27.032 -2.10023 -0.163212
ltoes 6.9471 -0 0
rfemur -53.1418 3.76186 3.42302
rtibia 62.825 -0 0
rfoot 10.3553 10.8156 -0.0012887
rtoes -26.1133 0 0
lowerback 8.15061 0.224934 0.00494871
upperback 2.19732 0.697628 3.52009
thorax -2.32747 0.429811 3.58293
lowerneck -7.60531 -12.2527 -3.70181
upperneck 10.1615 -16.3006 3.33713
head 5.19767 -7.93371 0.422827
lclavicle -3.89618e-014 -4.13472e-014 0
lhumerus -46.7046 -30.0889 114.542
lradius 57.9959 -0 0
lwrist 10.4378 0 0
lhand -3.18047 -2.55869 0.449007
lfingers 7.12502 -0 0
lthumb 22.4955 25.6351 0.282067
rclavicle -3.89618e-014 -4.13472e-014 0
rhumerus -16.5811 25.9274 -85.5139
rradius 107.232 -0 0
rwrist -5.09892 0 0
rhand -13.267 -19.645 0.245597
rfingers 7.12502 -0 0
rthumb 12.8227 -48.978 0.283419
511
root 6.01318 15.8914 -5.1846 -173.932 77.2745 -179.426
lfemur -28.2855 -12.4661 -22.4022
ltibia 59.1151 -0 0
lfoot -27.2828 -1.78131 -0.166005
ltoes 6.11371 -0 0
rfemur -52.8119 3.64098 2.92431
rtibia 61.8136 -0 0
rfoot 10.3913 10.7981 -0.00131073
rtoes -26.9255 0 0
lowerback 8.38626 0.276021 0.108549
upperback 2.35477 0.799769 3.71532
thorax -2.30239 0.486539 3.71803
lowerneck -7.49621 -12.4758 -3.86858
upperneck 10.3456 -16.5987 3.45916
head 5.26003 -8.07447 0.454591
lclavicle -3.89618e-014 -4.13472e-014 0
lhumerus -46.5327 -29.8894 114.478
lradius 58.1426 -0 0
lwrist 10.9357 0 0
lhand -4.01579 -2.82307 0.456718
lfingers 7.12502 -0 0
lthumb 21.694 25.4621 0.286908
rclavicle -3.89618e-014 -4.13472e-014 0
rhumerus -14.6677 25.1835 -84.8344
rradius 108.908 -0 0
rwrist -7.58909 0 0
rhand -13.9297 -19.8269 0.249808
rfingers 7.12502 -0 0
rthumb 12.1837 -49.1958 0.288277
512
root 6.07621 15.8487 -5.1283 -174.13 76.0114 -179.522
lfemur -28.4003 -12.0538 -22.3848
ltibia 60.0736 -0 0
lfoot -27.5337 -1.46238 -0.167401
ltoes 5.28032 -0 0
rfemur -52.4811 3.52297 2.42499
rtibia 60.8022 -0 0
rfoot 10.4273 10.7806 -0.00132174
rtoes -27.7377 0 0
lowerback 8.622 0.326682 0.212359
upperback 2.51257 0.901373 3.91083
thorax -2.27719 0.543208 3.85316
lowerneck -7.38636 -12.6986 -4.03594
upperneck 10.5293 -16.8971 3.58038
head 5.32233 -8.21527 0.486211
lclavicle -3.89618e-014 -4.13472e-014 0
lhumerus -46.3613 -29.6897 114.415
lradius 58.2894 -0 0
lwrist 11.4336 0 0
lhand -4.85113 -3.08754 0.460574
lfingers 7.12502 -0 0
lthumb 20.8924 25.2891 0.289329
rclavicle -3.89618e-014 -4.13472e-014 0
rhumerus -12.7757 24.4195 -84.1867
rradius 110.585 -0 0
rwrist -10.0793 0 0
rhand -14.5924 -20.0089 0.251913
rfingers 7.12502 -0 0
rthumb 11.5447 -49.4136 0.290707
513
root 6.13924 15.8059 -5.07201 -174.305 74.7483 -179.594
lfemur -28.5147 -11.6414 -22.3682
ltibia 61.0322 -0 0
lfoot -27.7845 -1.14345 -0.167401
ltoes 4.44692 -0 0
rfemur -52.1492 3.40784 1.92505
rtibia 59.7908 -0 0
rfoot 10.4634 10.7631 -0.00132174
rtoes -28.5498 0 0
lowerback 8.85784 0.376915 0.316378
upperback 2.67071 1.00244 4.10663
thorax -2.25184 0.599817 3.98832
lowerneck -7.27574 -12.9211 -4.20388
upperneck 10.7127 -17.196 3.7008
head 5.38458 -8.3561 0.517688
lclavicle -3.89618e-014 -4.13472e-014 0
lhumerus -46.1906 -29.4898 114.353
lradius 58.4361 -0 0
lwrist 11.9315 0 0
lhand -5.68649 -3.35203 0.460574
lfingers 7.12502 -0 0
lthumb 20.0908 25.116 0.289329
rclavicle -3.89618e-014 -4.13472e-014 0
rhumerus -10.9046 23.6367 -83.5708
rradius 112.262 -0 0
rwrist -12.5694 0 0
rhand -15.2551 -20.191 0.251913
rfingers 7.12502 -0 0
rthumb 10.9057 -49.6314 0.290707
514
root 6.20227 15.7632 -5.01571 -174.46 73.4851 -179.647
lfemur -28.6288 -11.229 -22.3525
ltibia 61.9907 -0 0
lfoot -28.0354 -0.824523 -0.166005
ltoes 3.61353 -0 0
rfemur -51.8165 3.29561 1.42451
rtibia 58.7794 -0 0
rfoot 10.4994 10.7456 -0.00131073
rtoes -29.362 0 0
lowerback 9.09377 0.42672 0.420603
upperback 2.82921 1.10296 4.30272
thorax -2.22637 0.656366 4.12351
lowerneck -7.16435 -13.1433 -4.37241
upperneck 10.8957 -17.4952 3.8204
head 5.44677 -8.49696 0.549021
lclavicle -3.89618e-014 -4.13472e-014 0
lhumerus -46.0205 -29.2898 114.291
lradius 58.5829 -0 0
lwrist 12.4294 0 0
lhand -6.52183 -3.6165 0.456718
lfingers 7.12502 -0 0
lthumb 19.2893 24.943 0.286908
rclavicle -3.89618e-014 -4.13472e-014 0
rhumerus -9.05387 22.836 -82.9866
rradius 113.938 -0 0
rwrist -15.0596 0 0
rhand -15.9178 -20.373 0.249808
rfingers 7.12502 -0 0
rthumb 10.2667 -49.8492 0.288277
